<?xml version="1.0" encoding="UTF-8" standalone="no"?>
<!DOCTYPE svg PUBLIC "-//W3C//DTD SVG 1.1//EN" "http://www.w3.org/Graphics/SVG/1.1/DTD/svg11.dtd">
<svg width="100%" height="100%" viewBox="0 0 2797 1196" version="1.1" xmlns="http://www.w3.org/2000/svg" xmlns:xlink="http://www.w3.org/1999/xlink" xml:space="preserve" style="fill-rule:evenodd;clip-rule:evenodd;stroke-linejoin:round;stroke-miterlimit:2;">
    <g transform="matrix(1,0,0,1,-14229.5,-15222.6)">
        <g transform="matrix(12.8621,0,0,10.5745,13849.7,5568.75)">
            <g transform="matrix(1.92748,0,0,1.91723,-27.3833,-709.282)">
                <g transform="matrix(1,0,0,1,-3.29051,72.843)">
                    <g transform="matrix(0.0611611,0,0,0.0743922,21.9474,707.424)">
                        <path d="M626.485,1476.41C630.485,1470.01 634.485,1465.61 638.485,1463.21C646.485,1458.41 650.485,1462.01 650.485,1474.01C650.485,1481.21 646.085,1490.01 637.285,1500.41C629.285,1510.01 622.485,1514.81 616.885,1514.81C614.485,1514.81 613.285,1513.21 613.285,1510.01C613.285,1503.61 617.685,1492.41 626.485,1476.41Z" style="fill:rgb(254,190,15);"/>
                    </g>
                    <g transform="matrix(0.0611611,0,0,0.0743922,21.9474,707.424)">
                        <path d="M412.885,1128.41C437.685,1145.21 461.685,1170.41 484.885,1204.01C487.285,1208.01 489.285,1210.81 490.885,1212.41C494.085,1217.21 496.885,1216.41 499.285,1210.01C500.885,1207.61 504.885,1195.61 511.285,1174.01C517.685,1151.61 522.485,1138.81 525.685,1135.61C530.485,1130.81 535.285,1128.41 540.085,1128.41C545.685,1128.41 550.485,1131.21 554.485,1136.81C559.285,1141.61 561.685,1148.01 561.685,1156.01C561.685,1177.61 550.885,1209.21 529.285,1250.81L517.285,1273.61L524.485,1303.61C529.285,1323.61 531.685,1352.41 531.685,1390.01C531.685,1433.21 528.885,1460.81 523.285,1472.81C516.885,1487.21 509.685,1494.41 501.685,1494.41C498.485,1494.41 495.685,1492.81 493.285,1489.61C490.885,1487.21 488.885,1461.61 487.285,1412.81C485.685,1364.81 483.685,1338.81 481.285,1334.81C481.285,1334.01 480.885,1333.61 480.085,1333.61C476.085,1333.61 458.885,1350.81 428.485,1385.21C396.485,1422.81 378.885,1442.41 375.685,1444.01C367.685,1444.81 367.285,1436.01 374.485,1417.61C382.485,1401.61 399.285,1374.41 424.885,1336.01L468.085,1271.21L463.285,1255.61C460.885,1246.01 457.285,1236.01 452.485,1225.61C447.685,1215.21 436.485,1197.21 418.885,1171.61C402.085,1146.01 392.485,1132.41 390.085,1130.81C386.885,1129.21 385.285,1126.41 385.285,1122.41C386.085,1118.41 388.085,1116.41 391.285,1116.41C395.285,1116.41 402.485,1120.41 412.885,1128.41Z" style="fill:rgb(254,190,15);"/>
                    </g>
                    <g transform="matrix(0.0611611,0,0,0.0743922,21.9474,707.424)">
                        <path d="M687.685,1210.01C699.685,1233.21 705.685,1262.01 705.685,1296.41C705.685,1298.81 705.285,1303.21 704.485,1309.61L704.485,1324.01C702.085,1374.41 694.485,1406.41 681.685,1420.01C678.485,1424.01 674.885,1426.81 670.885,1428.41C666.885,1430.01 663.285,1430.01 660.085,1428.41C657.685,1426.81 656.485,1423.61 656.485,1418.81C656.485,1407.61 658.485,1386.01 662.485,1354.01C668.885,1309.21 672.085,1270.81 672.085,1238.81C672.085,1204.41 672.885,1187.21 674.485,1187.21C676.085,1187.21 680.485,1194.81 687.685,1210.01Z" style="fill:rgb(254,190,15);"/>
                    </g>
                    <g transform="matrix(0.0611611,0,0,0.0743922,21.9474,707.424)">
                        <path d="M921.685,1381.61C924.085,1384.81 925.285,1392.01 925.285,1403.21C925.285,1424.01 922.485,1436.41 916.885,1440.41C913.685,1442.01 911.685,1442.81 910.885,1442.81C899.685,1442.81 894.085,1429.61 894.085,1403.21C894.085,1392.01 895.685,1384.81 898.885,1381.61C906.885,1373.61 914.485,1373.61 921.685,1381.61Z" style="fill:rgb(254,190,15);"/>
                    </g>
                    <g transform="matrix(0.0611611,0,0,0.0743922,21.9474,707.424)">
                        <path d="M907.285,1194.41C919.285,1212.81 925.285,1238.81 925.285,1272.41C925.285,1285.21 924.085,1297.61 921.685,1309.61C918.485,1324.01 916.085,1332.81 914.485,1336.01C912.885,1338.41 909.285,1339.61 903.685,1339.61C896.485,1339.61 892.085,1335.61 890.485,1327.61C888.885,1319.61 887.685,1299.21 886.885,1266.41C886.885,1235.21 885.285,1214.01 882.085,1202.81C880.485,1194.81 879.685,1190.01 879.685,1188.41C879.685,1181.21 882.085,1177.61 886.885,1177.61C892.485,1177.61 899.285,1183.21 907.285,1194.41Z" style="fill:rgb(254,190,15);"/>
                    </g>
                    <g transform="matrix(0.0611611,0,0,0.0743922,21.9474,707.424)">
                        <path d="M1124.49,1166.81C1125.29,1168.41 1125.68,1171.21 1125.68,1175.21C1125.68,1180.81 1123.68,1186.01 1119.68,1190.81C1115.68,1194.81 1110.49,1196.81 1104.09,1196.81C1091.29,1196.81 1084.88,1191.21 1084.88,1180.01C1084.88,1177.61 1086.49,1173.21 1089.68,1166.81C1093.68,1160.41 1100.09,1157.21 1108.88,1157.21C1116.88,1157.21 1122.09,1160.41 1124.49,1166.81Z" style="fill:rgb(254,190,15);"/>
                    </g>
                    <g transform="matrix(0.0611611,0,0,0.0743922,21.9474,707.424)">
                        <path d="M1105.29,1260.41C1105.29,1279.61 1101.29,1308.01 1093.29,1345.61C1085.29,1382.41 1079.29,1402.81 1075.29,1406.81C1072.09,1410.01 1068.49,1410.41 1064.49,1408.01C1058.88,1404.81 1056.09,1384.41 1056.09,1346.81C1056.09,1326.81 1057.29,1308.01 1059.68,1290.41C1062.09,1266.41 1066.88,1250.81 1074.09,1243.61C1078.88,1239.61 1084.09,1237.61 1089.68,1237.61C1100.09,1237.61 1105.29,1245.21 1105.29,1260.41Z" style="fill:rgb(254,190,15);"/>
                    </g>
                    <g transform="matrix(0.0611611,0,0,0.0743922,21.9474,707.424)">
                        <path d="M1412.49,1592.81C1402.09,1600.01 1392.09,1599.21 1382.49,1590.41C1376.88,1584.81 1374.09,1578.01 1374.09,1570.01C1374.09,1553.21 1381.68,1544.81 1396.88,1544.81C1403.29,1544.81 1408.88,1548.01 1413.68,1554.41C1418.49,1560.81 1420.88,1567.61 1420.88,1574.81C1420.88,1582.01 1418.09,1588.01 1412.49,1592.81Z" style="fill:rgb(254,190,15);"/>
                    </g>
                    <g transform="matrix(0.0611611,0,0,0.0743922,21.9474,707.424)">
                        <path d="M1453.29,1238.81C1462.88,1250.01 1470.49,1262.81 1476.09,1277.21C1481.68,1291.61 1484.49,1321.61 1484.49,1367.21C1484.49,1411.21 1480.88,1444.81 1473.68,1468.01C1464.88,1495.21 1459.68,1510.41 1458.09,1513.61C1453.29,1524.01 1445.68,1529.21 1435.29,1529.21C1431.29,1529.21 1427.68,1528.01 1424.49,1525.61C1420.49,1523.21 1418.09,1520.41 1417.29,1517.21C1416.49,1514.01 1416.88,1506.81 1418.49,1495.61C1420.09,1478.81 1422.88,1460.81 1426.88,1441.61C1432.49,1411.21 1435.29,1378.81 1435.29,1344.41C1435.29,1302.01 1430.88,1270.81 1422.09,1250.81C1419.68,1245.21 1418.49,1240.01 1418.49,1235.21C1418.49,1227.21 1421.68,1223.21 1428.09,1223.21C1435.29,1223.21 1443.68,1228.41 1453.29,1238.81Z" style="fill:rgb(254,190,15);"/>
                    </g>
                    <g transform="matrix(0.0611611,0,0,0.0743922,21.9474,707.424)">
                        <path d="M1708.88,978.409C1715.29,991.209 1718.49,1012.01 1718.49,1040.81C1718.49,1066.41 1715.68,1096.81 1710.09,1132.01C1704.49,1166.41 1697.29,1183.61 1688.49,1183.61L1687.29,1183.61C1685.68,1183.61 1684.49,1183.21 1683.68,1182.41C1682.88,1180.81 1682.09,1178.41 1681.29,1175.21C1680.49,1172.01 1679.68,1167.61 1678.88,1162.01C1678.09,1156.41 1677.29,1148.81 1676.49,1139.21C1675.68,1129.61 1674.88,1118.41 1674.09,1105.61C1673.29,1092.01 1672.09,1075.21 1670.49,1055.21C1668.09,1014.41 1664.49,989.209 1659.68,979.609C1651.68,963.609 1650.49,952.809 1656.09,947.209C1659.29,944.009 1662.88,942.409 1666.88,942.409C1674.88,942.409 1682.88,946.809 1690.88,955.609C1699.68,963.609 1705.68,971.209 1708.88,978.409Z" style="fill:rgb(254,190,15);"/>
                    </g>
                    <g transform="matrix(0.0611611,0,0,0.0743922,21.9474,707.424)">
                        <path d="M1810.88,1284.41C1810.88,1285.21 1811.29,1286.01 1812.09,1286.81L1812.09,1288.01C1812.09,1293.61 1808.88,1299.21 1802.49,1304.81C1796.09,1310.41 1789.68,1313.21 1783.29,1313.21L1780.88,1312.01L1778.49,1312.01C1775.29,1311.21 1773.68,1308.81 1773.68,1304.81C1773.68,1299.21 1776.88,1293.61 1783.29,1288.01C1790.49,1281.61 1796.88,1278.41 1802.49,1278.41C1807.29,1278.41 1810.09,1280.41 1810.88,1284.41Z" style="fill:rgb(254,190,15);"/>
                    </g>
                    <g transform="matrix(0.0611611,0,0,0.0743922,21.9474,707.424)">
                        <path d="M1958.49,1151.21C1959.29,1152.81 1959.68,1154.01 1959.68,1154.81C1959.68,1172.41 1944.88,1196.81 1915.29,1228.01C1884.09,1259.21 1858.49,1274.81 1838.49,1274.81C1834.49,1274.81 1831.29,1273.21 1828.88,1270.01C1828.09,1269.21 1827.68,1267.21 1827.68,1264.01C1827.68,1256.01 1840.09,1241.21 1864.88,1219.61C1896.88,1191.61 1916.88,1174.41 1924.88,1168.01C1941.68,1153.61 1951.29,1146.41 1953.68,1146.41C1956.09,1146.41 1957.68,1148.01 1958.49,1151.21Z" style="fill:rgb(254,190,15);"/>
                    </g>
                    <g transform="matrix(0.0611611,0,0,0.0743922,21.9474,707.424)">
                        <path d="M1912.88,1483.61C1934.49,1502.81 1945.29,1525.21 1945.29,1550.81C1945.29,1562.01 1942.09,1574.81 1935.68,1589.21C1925.29,1611.61 1912.49,1622.81 1897.29,1622.81C1893.29,1622.81 1889.29,1620.81 1885.29,1616.81C1882.09,1612.81 1883.29,1603.61 1888.88,1589.21C1894.49,1575.61 1897.29,1561.21 1897.29,1546.01C1897.29,1530.01 1893.29,1514.41 1885.29,1499.21C1878.09,1484.81 1874.49,1475.61 1874.49,1471.61C1874.49,1467.61 1876.49,1465.61 1880.49,1465.61C1890.09,1465.61 1900.88,1471.61 1912.88,1483.61Z" style="fill:rgb(254,190,15);"/>
                    </g>
                </g>
                <g transform="matrix(1,0,0,1,-3.29051,72.843)">
                    <g transform="matrix(0.0611611,0,0,0.0743922,21.9474,707.424)">
                        <path d="M626.485,1476.41C617.685,1492.41 613.285,1503.61 613.285,1510.01C613.285,1513.21 614.485,1514.81 616.885,1514.81C622.485,1514.81 629.285,1510.01 637.285,1500.41C646.085,1490.01 650.485,1481.21 650.485,1474.01C650.485,1462.01 646.485,1458.41 638.485,1463.21C634.485,1465.61 630.485,1470.01 626.485,1476.41ZM687.685,1210.01C680.485,1194.81 676.085,1187.21 674.485,1187.21C672.885,1187.21 672.085,1204.41 672.085,1238.81C672.085,1253.95 671.369,1270.52 669.937,1288.52C668.341,1308.57 665.858,1330.4 662.485,1354.01C658.485,1386.01 656.485,1407.61 656.485,1418.81C656.485,1423.61 657.685,1426.81 660.085,1428.41C663.285,1430.01 666.885,1430.01 670.885,1428.41C674.885,1426.81 678.485,1424.01 681.685,1420.01C694.485,1406.41 702.085,1374.41 704.485,1324.01L704.485,1309.61C705.285,1303.21 705.685,1298.81 705.685,1296.41C705.685,1262.01 699.685,1233.21 687.685,1210.01ZM412.885,1128.41C402.485,1120.41 395.285,1116.41 391.285,1116.41C388.085,1116.41 386.085,1118.41 385.285,1122.41C385.285,1126.41 386.885,1129.21 390.085,1130.81C392.485,1132.41 402.085,1146.01 418.885,1171.61C436.485,1197.21 447.685,1215.21 452.485,1225.61C457.285,1236.01 460.885,1246.01 463.285,1255.61L468.085,1271.21L424.885,1336.01C399.285,1374.41 382.485,1401.61 374.485,1417.61C367.285,1436.01 367.685,1444.81 375.685,1444.01C378.885,1442.41 396.485,1422.81 428.485,1385.21C458.885,1350.81 476.085,1333.61 480.085,1333.61C480.885,1333.61 481.285,1334.01 481.285,1334.81C483.685,1338.81 485.685,1364.81 487.285,1412.81C488.885,1461.61 490.885,1487.21 493.285,1489.61C495.685,1492.81 498.485,1494.41 501.685,1494.41C509.685,1494.41 516.885,1487.21 523.285,1472.81C528.885,1460.81 531.685,1433.21 531.685,1390.01C531.685,1352.41 529.285,1323.61 524.485,1303.61L517.285,1273.61L529.285,1250.81C550.885,1209.21 561.685,1177.61 561.685,1156.01C561.685,1148.01 559.285,1141.61 554.485,1136.81C550.485,1131.21 545.685,1128.41 540.085,1128.41C535.285,1128.41 530.485,1130.81 525.685,1135.61C522.485,1138.81 517.685,1151.61 511.285,1174.01C504.885,1195.61 500.885,1207.61 499.285,1210.01C496.885,1216.41 494.085,1217.21 490.885,1212.41C489.285,1210.81 487.285,1208.01 484.885,1204.01C461.685,1170.41 437.685,1145.21 412.885,1128.41ZM256.885,947.209C268.885,944.809 287.685,943.609 313.285,943.609L343.285,943.609C460.085,946.009 552.885,969.609 621.685,1014.41C648.885,1032.01 673.685,1054.41 696.085,1081.61C718.485,1108.81 733.685,1134.81 741.685,1159.61C750.485,1190.01 754.885,1228.81 754.885,1276.01C754.885,1321.61 750.885,1358.81 742.885,1387.61C732.485,1430.01 716.885,1468.41 696.085,1502.81C688.085,1515.61 675.685,1530.41 658.885,1547.21C642.885,1563.21 628.485,1575.21 615.685,1583.21C547.685,1623.21 450.085,1643.21 322.885,1643.21L300.085,1643.21C252.885,1642.41 223.685,1639.21 212.485,1633.61C194.885,1624.81 183.685,1608.41 178.885,1584.41C178.085,1582.01 177.685,1576.81 177.685,1568.81C177.685,1533.61 183.685,1474.01 195.685,1390.01C201.285,1353.21 204.085,1308.01 204.085,1254.41C204.085,1199.21 200.885,1153.21 194.485,1116.41C188.885,1088.41 185.285,1059.61 183.685,1030.01C183.685,1026.81 183.285,1022.81 182.485,1018.01L182.485,1007.21C182.485,996.809 185.285,986.809 190.885,977.209C198.885,965.209 220.885,955.209 256.885,947.209Z" style="fill:rgb(38,104,88);fill-rule:nonzero;"/>
                    </g>
                    <g transform="matrix(0.0611611,0,0,0.0743922,21.9474,707.424)">
                        <path d="M921.685,1381.61C914.485,1373.61 906.885,1373.61 898.885,1381.61C895.685,1384.81 894.085,1392.01 894.085,1403.21C894.085,1429.61 899.685,1442.81 910.885,1442.81C911.685,1442.81 913.685,1442.01 916.885,1440.41C922.485,1436.41 925.285,1424.01 925.285,1403.21C925.285,1392.01 924.085,1384.81 921.685,1381.61ZM907.285,1194.41C899.285,1183.21 892.485,1177.61 886.885,1177.61C882.085,1177.61 879.685,1181.21 879.685,1188.41C879.685,1190.01 880.485,1194.81 882.085,1202.81C885.285,1214.01 886.885,1235.21 886.885,1266.41C887.685,1299.21 888.885,1319.61 890.485,1327.61C892.085,1335.61 896.485,1339.61 903.685,1339.61C909.285,1339.61 912.885,1338.41 914.485,1336.01C916.085,1332.81 918.485,1324.01 921.685,1309.61C924.085,1297.61 925.285,1285.21 925.285,1272.41C925.285,1238.81 919.285,1212.81 907.285,1194.41ZM861.685,1114.01C868.085,1112.41 872.885,1111.61 876.085,1111.61C898.485,1111.61 919.285,1121.21 938.485,1140.41C945.685,1147.61 952.085,1157.61 957.685,1170.41C964.085,1184.81 967.285,1226.01 967.285,1294.01C967.285,1368.41 968.885,1416.81 972.085,1439.21C974.485,1460.01 975.685,1479.21 975.685,1496.81C975.685,1579.21 956.485,1631.61 918.085,1654.01C909.285,1659.61 900.885,1662.41 892.885,1662.41C887.285,1662.41 882.485,1662.01 878.485,1661.21C852.085,1658.81 832.485,1648.41 819.685,1630.01C807.685,1612.41 801.685,1587.61 801.685,1555.61C801.685,1549.21 802.485,1529.21 804.085,1495.61C806.485,1452.41 807.685,1418.01 807.685,1392.41C807.685,1359.61 805.285,1325.61 800.485,1290.41C797.285,1271.21 795.685,1253.61 795.685,1237.61C795.685,1218.41 799.285,1196.81 806.485,1172.81C810.485,1162.41 818.485,1150.81 830.485,1138.01C842.485,1125.21 852.885,1117.21 861.685,1114.01Z" style="fill:rgb(38,104,88);fill-rule:nonzero;"/>
                    </g>
                    <g transform="matrix(0.0611611,0,0,0.0743922,21.9474,707.424)">
                        <path d="M1412.49,1592.81C1418.09,1588.01 1420.88,1582.01 1420.88,1574.81C1420.88,1567.61 1418.49,1560.81 1413.68,1554.41C1408.88,1548.01 1403.29,1544.81 1396.88,1544.81C1381.68,1544.81 1374.09,1553.21 1374.09,1570.01C1374.09,1578.01 1376.88,1584.81 1382.49,1590.41C1392.09,1599.21 1402.09,1600.01 1412.49,1592.81ZM1105.29,1260.41C1105.29,1245.21 1100.09,1237.61 1089.68,1237.61C1084.09,1237.61 1078.88,1239.61 1074.09,1243.61C1066.88,1250.81 1062.09,1266.41 1059.68,1290.41C1057.29,1308.01 1056.09,1326.81 1056.09,1346.81C1056.09,1384.41 1058.88,1404.81 1064.49,1408.01C1068.49,1410.41 1072.09,1410.01 1075.29,1406.81C1079.29,1402.81 1085.29,1382.41 1093.29,1345.61C1101.29,1308.01 1105.29,1279.61 1105.29,1260.41ZM1453.29,1238.81C1443.68,1228.41 1435.29,1223.21 1428.09,1223.21C1421.68,1223.21 1418.49,1227.21 1418.49,1235.21C1418.49,1240.01 1419.68,1245.21 1422.09,1250.81C1430.88,1270.81 1435.29,1302.01 1435.29,1344.41C1435.29,1378.81 1432.49,1411.21 1426.88,1441.61C1422.88,1460.81 1420.09,1478.81 1418.49,1495.61C1416.88,1506.81 1416.49,1514.01 1417.29,1517.21C1418.09,1520.41 1420.49,1523.21 1424.49,1525.61C1427.68,1528.01 1431.29,1529.21 1435.29,1529.21C1445.68,1529.21 1453.29,1524.01 1458.09,1513.61C1459.68,1510.41 1464.88,1495.21 1473.68,1468.01C1480.88,1444.81 1484.49,1411.21 1484.49,1367.21C1484.49,1321.61 1481.68,1291.61 1476.09,1277.21C1470.49,1262.81 1462.88,1250.01 1453.29,1238.81ZM1124.49,1166.81C1122.09,1160.41 1116.88,1157.21 1108.88,1157.21C1100.09,1157.21 1093.68,1160.41 1089.68,1166.81C1086.49,1173.21 1084.88,1177.61 1084.88,1180.01C1084.88,1191.21 1091.29,1196.81 1104.09,1196.81C1110.49,1196.81 1115.68,1194.81 1119.68,1190.81C1123.68,1186.01 1125.68,1180.81 1125.68,1175.21C1125.68,1171.21 1125.29,1168.41 1124.49,1166.81ZM1074.09,1103.21C1079.68,1100.01 1086.88,1098.41 1095.68,1098.41C1123.68,1098.41 1144.49,1107.21 1158.09,1124.81C1163.68,1132.01 1168.88,1134.01 1173.68,1130.81C1203.29,1109.21 1245.29,1098.41 1299.68,1098.41C1334.09,1098.41 1362.49,1103.21 1384.88,1112.81C1407.29,1121.61 1430.49,1138.41 1454.49,1163.21C1484.88,1193.61 1505.68,1229.61 1516.88,1271.21C1521.68,1288.81 1524.09,1323.21 1524.09,1374.41C1524.09,1425.61 1521.68,1463.21 1516.88,1487.21C1498.49,1576.81 1470.09,1632.01 1431.68,1652.81C1426.09,1656.01 1416.49,1657.61 1402.88,1657.61C1385.29,1657.61 1370.88,1655.21 1359.68,1650.41C1336.49,1639.21 1318.88,1620.41 1306.88,1594.01C1299.68,1578.01 1296.09,1556.81 1296.09,1530.41C1296.09,1507.21 1298.49,1480.01 1303.29,1448.81C1308.88,1407.21 1311.68,1374.81 1311.68,1351.61C1311.68,1306.01 1305.68,1274.41 1293.68,1256.81C1289.68,1250.41 1284.09,1247.21 1276.88,1247.21C1259.29,1247.21 1241.68,1264.01 1224.09,1297.61C1214.49,1316.01 1208.09,1332.01 1204.88,1345.61C1202.49,1359.21 1201.29,1382.41 1201.29,1415.21L1201.29,1475.21C1201.29,1515.21 1199.29,1544.41 1195.29,1562.81C1192.09,1581.21 1184.88,1598.81 1173.68,1615.61C1164.09,1629.21 1154.49,1639.21 1144.88,1645.61C1136.09,1651.21 1124.09,1654.01 1108.88,1654.01C1098.49,1654.01 1090.49,1652.41 1084.88,1649.21C1067.29,1640.41 1052.88,1623.21 1041.68,1597.61C1023.28,1554.41 1014.09,1464.81 1014.09,1328.81C1014.09,1263.21 1017.69,1215.61 1024.88,1186.01C1036.09,1142.01 1052.49,1114.41 1074.09,1103.21Z" style="fill:rgb(38,104,88);fill-rule:nonzero;"/>
                    </g>
                    <g transform="matrix(0.0611611,0,0,0.0743922,21.9474,707.424)">
                        <path d="M1912.88,1483.61C1900.88,1471.61 1890.09,1465.61 1880.49,1465.61C1876.49,1465.61 1874.49,1467.61 1874.49,1471.61C1874.49,1475.61 1878.09,1484.81 1885.29,1499.21C1893.29,1514.41 1897.29,1530.01 1897.29,1546.01C1897.29,1561.21 1894.49,1575.61 1888.88,1589.21C1883.29,1603.61 1882.09,1612.81 1885.29,1616.81C1889.29,1620.81 1893.29,1622.81 1897.29,1622.81C1912.49,1622.81 1925.29,1611.61 1935.68,1589.21C1942.09,1574.81 1945.29,1562.01 1945.29,1550.81C1945.29,1525.21 1934.49,1502.81 1912.88,1483.61ZM1810.88,1284.41C1810.09,1280.41 1807.29,1278.41 1802.49,1278.41C1796.88,1278.41 1790.49,1281.61 1783.29,1288.01C1776.88,1293.61 1773.68,1299.21 1773.68,1304.81C1773.68,1308.81 1775.29,1311.21 1778.49,1312.01L1780.88,1312.01L1783.29,1313.21C1789.68,1313.21 1796.09,1310.41 1802.49,1304.81C1808.88,1299.21 1812.09,1293.61 1812.09,1288.01L1812.09,1286.81C1811.29,1286.01 1810.88,1285.21 1810.88,1284.41ZM1958.49,1151.21C1957.68,1148.01 1956.09,1146.41 1953.68,1146.41C1951.29,1146.41 1941.68,1153.61 1924.88,1168.01C1916.88,1174.41 1896.88,1191.61 1864.88,1219.61C1840.09,1241.21 1827.68,1256.01 1827.68,1264.01C1827.68,1267.21 1828.09,1269.21 1828.88,1270.01C1831.29,1273.21 1834.49,1274.81 1838.49,1274.81C1858.49,1274.81 1884.09,1259.21 1915.29,1228.01C1944.88,1196.81 1959.68,1172.41 1959.68,1154.81C1959.68,1154.01 1959.29,1152.81 1958.49,1151.21ZM1708.88,978.409C1705.68,971.209 1699.68,963.609 1690.88,955.609C1682.88,946.809 1674.88,942.409 1666.88,942.409C1662.88,942.409 1659.29,944.009 1656.09,947.209C1650.49,952.809 1651.68,963.609 1659.68,979.609C1664.49,989.209 1668.09,1014.41 1670.49,1055.21C1672.09,1075.21 1673.29,1092.01 1674.09,1105.61C1674.88,1118.41 1675.68,1129.61 1676.49,1139.21C1677.29,1148.81 1678.09,1156.41 1678.88,1162.01C1679.68,1167.61 1680.49,1172.01 1681.29,1175.21C1682.09,1178.41 1682.88,1180.81 1683.68,1182.41C1684.49,1183.21 1685.68,1183.61 1687.29,1183.61L1688.49,1183.61C1697.29,1183.61 1704.49,1166.41 1710.09,1132.01C1715.68,1096.81 1718.49,1066.41 1718.49,1040.81C1718.49,1012.01 1715.29,991.209 1708.88,978.409ZM1632.09,893.209C1642.49,889.209 1652.09,887.209 1660.88,887.209C1680.09,887.209 1697.68,894.409 1713.68,908.809C1729.68,922.409 1740.88,941.209 1747.29,965.209C1751.29,979.609 1753.29,1001.21 1753.29,1030.01C1753.29,1058.81 1750.49,1098.41 1744.88,1148.81C1740.09,1184.81 1737.68,1206.81 1737.68,1214.81C1737.68,1215.61 1740.09,1213.61 1744.88,1208.81C1749.68,1204.01 1757.29,1196.41 1767.68,1186.01C1801.29,1151.61 1836.09,1124.81 1872.09,1105.61C1908.88,1085.61 1940.88,1075.61 1968.09,1075.61C1987.29,1075.61 2002.09,1080.81 2012.49,1091.21C2018.88,1097.61 2022.09,1104.81 2022.09,1112.81L2022.09,1126.01C2020.49,1153.21 2008.49,1181.61 1986.09,1211.21C1963.68,1240.01 1928.09,1273.61 1879.29,1312.01C1844.88,1339.21 1827.68,1353.61 1827.68,1355.21C1827.68,1358.41 1850.88,1380.01 1897.29,1420.01C1957.29,1471.21 1987.29,1520.41 1987.29,1567.61C1987.29,1597.21 1975.29,1622.41 1951.29,1643.21C1927.29,1664.01 1901.68,1674.41 1874.49,1674.41C1860.09,1674.41 1848.09,1671.21 1838.49,1664.81C1824.88,1656.01 1815.29,1645.21 1809.68,1632.41C1804.88,1618.81 1800.49,1596.41 1796.49,1565.21C1793.29,1530.01 1782.88,1503.21 1765.29,1484.81C1758.09,1477.61 1752.88,1474.01 1749.68,1474.01C1746.49,1474.01 1744.88,1478.01 1744.88,1486.01C1744.88,1501.21 1748.49,1521.21 1755.68,1546.01C1760.49,1564.41 1762.88,1580.01 1762.88,1592.81C1762.88,1620.01 1750.88,1642.01 1726.88,1658.81C1707.68,1671.61 1684.49,1678.01 1657.29,1678.01C1650.09,1678.01 1644.88,1677.61 1641.68,1676.81C1616.09,1671.21 1596.49,1657.21 1582.88,1634.81C1574.88,1620.41 1570.88,1595.61 1570.88,1560.41C1570.88,1550.01 1571.68,1536.01 1573.29,1518.41C1574.88,1504.01 1575.68,1492.81 1575.68,1484.81C1575.68,1481.61 1574.09,1456.81 1570.88,1410.41C1565.29,1346.41 1562.49,1270.41 1562.49,1182.41C1562.49,1070.41 1566.49,1000.01 1574.49,971.209C1585.68,931.209 1604.88,905.209 1632.09,893.209Z" style="fill:rgb(38,104,88);fill-rule:nonzero;"/>
                    </g>
                </g>
                <g transform="matrix(0.0509377,0,0,0.0619571,57.3777,835.793)">
                    <g transform="matrix(1,0,0,1,392.143,260.153)">
                        <path d="M0,39.134C-5.249,39.134 -9.503,31.782 -9.503,22.714C-9.503,13.645 -5.249,6.293 0,6.293C5.248,6.293 9.503,13.645 9.503,22.714C9.503,31.782 5.248,39.134 0,39.134M-41.354,108.145C-49.768,112.358 -58.53,111.895 -60.926,107.111C-63.321,102.327 -58.442,95.033 -50.029,90.821C-41.615,86.607 -32.853,87.07 -30.457,91.854C-28.062,96.638 -32.94,103.931 -41.354,108.145M-84.07,32.358C-95.896,32.358 -105.481,22.772 -105.481,10.947C-105.481,-0.877 -95.896,-10.463 -84.07,-10.463C-72.246,-10.463 -62.66,-0.877 -62.66,10.947C-62.66,22.772 -72.246,32.358 -84.07,32.358M-131.247,-64.88C-132.739,-69.157 -129.491,-74.247 -118.251,-77.837C-111.322,-80.051 -102.886,-79.207 -100.91,-75.13C-98.316,-69.778 -101.711,-65.749 -110.812,-62.084C-118.418,-59.02 -129.755,-60.602 -131.247,-64.88M-121.354,102.113C-124.411,107.408 -133.628,107.81 -141.941,103.01C-150.253,98.211 -154.514,90.028 -151.457,84.733C-148.4,79.438 -139.183,79.037 -130.871,83.836C-122.558,88.635 -118.297,96.819 -121.354,102.113M-165.683,4.322C-167.341,13.456 -173.673,19.956 -179.828,18.839C-185.982,17.722 -189.628,9.412 -187.97,0.278C-186.313,-8.857 -179.98,-15.357 -173.826,-14.24C-167.671,-13.123 -164.025,-4.813 -165.683,4.322M-94.422,-93.344C-156.782,-93.344 -207.333,-42.792 -207.333,19.568C-207.333,81.926 -156.782,132.478 -94.422,132.478C-32.063,132.478 18.488,81.926 18.488,19.568C18.488,-42.792 -32.063,-93.344 -94.422,-93.344" style="fill:rgb(254,190,15);fill-rule:nonzero;"/>
                    </g>
                    <g transform="matrix(1,0,0,1,362.29,239.454)">
                        <path d="M0,115.039C0.124,119.609 -4.443,125.31 -11.501,128.844C-19.915,133.057 -28.678,132.595 -31.073,127.81C-31.699,126.56 -31.824,125.137 -31.522,123.643C-35.98,124.181 -40.517,124.464 -45.118,124.464C-61.668,124.464 -77.382,120.888 -91.533,114.468C-90.237,117.454 -90.124,120.426 -91.502,122.812C-94.559,128.107 -103.775,128.509 -112.088,123.71C-120.401,118.911 -124.662,110.727 -121.604,105.433C-120.118,102.857 -117.167,101.449 -113.578,101.225C-134.103,85.453 -149.03,62.763 -154.871,36.638C-157.873,33.216 -159.264,27.294 -158.118,20.977C-157.938,19.988 -157.701,19.032 -157.418,18.112C-157.527,16.087 -157.585,14.049 -157.585,11.997C-157.585,-6.02 -153.342,-23.043 -145.811,-38.139C-165.417,-17.829 -177.481,9.809 -177.481,40.267C-177.481,102.626 -126.929,153.178 -64.57,153.178C-19.271,153.178 19.79,126.498 37.776,87.999C27.272,99.449 14.427,108.712 0,115.039" style="fill:rgb(35,31,32);fill-opacity:0.1;fill-rule:nonzero;"/>
                    </g>
                    <g transform="matrix(1,0,0,1,321.131,263.666)">
                        <path d="M0,16.055C-11.825,16.055 -21.41,6.469 -21.41,-5.356C-21.41,-7.97 -20.94,-10.475 -20.082,-12.791C-28.456,-9.883 -34.47,-1.929 -34.47,7.435C-34.47,19.26 -24.884,28.846 -13.059,28.846C-3.849,28.846 4.001,23.029 7.023,14.87C4.822,15.634 2.461,16.055 0,16.055" style="fill:rgb(38,104,88);fill-rule:nonzero;"/>
                    </g>
                    <g transform="matrix(1,0,0,1,217.588,274.536)">
                        <path d="M0,-24.347C0.267,-25.817 0.656,-27.218 1.145,-28.531C1.007,-28.564 0.87,-28.597 0.729,-28.622C-5.425,-29.74 -11.758,-23.24 -13.416,-14.105C-15.073,-4.971 -11.428,3.34 -5.273,4.456C-0.109,5.393 5.179,0.967 7.727,-5.877C1.826,-7.286 -1.62,-15.421 0,-24.347" style="fill:rgb(38,104,88);fill-rule:nonzero;"/>
                    </g>
                    <g transform="matrix(1,0,0,1,263.94,353.624)">
                        <path d="M0,0.624C-5.958,-2.815 -9.833,-7.994 -10.426,-12.601C-16.089,-13.715 -21.143,-12.396 -23.254,-8.738C-26.312,-3.443 -22.051,4.74 -13.738,9.54C-5.426,14.339 3.792,13.937 6.848,8.642C7.714,7.143 7.992,5.411 7.758,3.59C5.224,3.091 2.569,2.107 0,0.624" style="fill:rgb(38,104,88);fill-rule:nonzero;"/>
                    </g>
                    <g transform="matrix(1,0,0,1,274.953,198.008)">
                        <path d="M0,-12.81C-0.351,-13.816 -0.436,-14.869 -0.219,-15.935C-0.501,-15.856 -0.785,-15.781 -1.062,-15.692C-12.302,-12.102 -15.55,-7.012 -14.058,-2.734C-12.566,1.544 -1.229,3.125 6.377,0.061C13.072,-2.635 16.667,-5.53 17.074,-9.002C9.859,-7.447 1.284,-9.128 0,-12.81" style="fill:rgb(38,104,88);fill-rule:nonzero;"/>
                    </g>
                    <g transform="matrix(1,0,0,1,351.705,364.898)">
                        <path d="M0,-9.176C-1.098,-11.366 -0.666,-14.083 0.929,-16.789C-2.287,-16.679 -5.97,-15.738 -9.592,-13.924C-18.005,-9.711 -22.884,-2.417 -20.488,2.366C-18.093,7.151 -9.33,7.613 -0.916,3.4C3.646,1.116 7.164,-2.074 9.052,-5.278C4.797,-5.134 1.364,-6.451 0,-9.176" style="fill:rgb(38,104,88);fill-rule:nonzero;"/>
                    </g>
                    <g transform="matrix(-1,0,0,1,392.143,299.287)">
                        <path d="M0,-32.841C5.249,-32.841 9.503,-25.489 9.503,-16.42C9.503,-7.351 5.249,0 0,0C-5.248,0 -9.503,-7.351 -9.503,-16.42C-4.254,-16.42 0,-23.772 0,-32.841" style="fill:rgb(38,104,88);fill-rule:nonzero;"/>
                    </g>
                    <g transform="matrix(0.5608,-0.827952,-0.827952,-0.5608,373.307,197.298)">
                        <path d="M-11.859,-6.291C-15.693,-6.29 -18.801,0.123 -18.802,8.034C-18.802,15.944 -15.693,22.356 -11.859,22.356C-8.024,22.356 -4.917,15.944 -4.917,8.033C-4.916,0.122 -8.025,-6.29 -11.859,-6.291" style="fill:rgb(38,104,88);fill-rule:nonzero;"/>
                    </g>
                    <g transform="matrix(-0.744779,-0.667311,-0.667311,0.744779,205.107,207.528)">
                        <path d="M-8.144,-21.296C-9.238,-21.296 -10.127,-15.831 -10.127,-9.091C-10.127,-2.35 -9.24,3.114 -8.144,3.114C-7.049,3.114 -6.162,-2.35 -6.162,-9.091C-6.162,-15.831 -7.05,-21.296 -8.144,-21.296" style="fill:rgb(38,104,88);fill-rule:nonzero;"/>
                    </g>
                    <g transform="matrix(1,0,0,1,203.933,315.855)">
                        <path d="M0,24.549C1.652,23.803 0.565,17.823 -2.427,11.193C-5.42,4.562 -9.187,-0.208 -10.839,0.537C-11.679,0.917 -11.808,2.653 -11.341,5.136C-8.749,11.736 -5.548,18.028 -1.816,23.953C-1.09,24.523 -0.461,24.757 0,24.549" style="fill:rgb(38,104,88);fill-rule:nonzero;"/>
                    </g>
                </g>
            </g>
        </g>
    </g>
</svg>
