<?xml version="1.0" encoding="UTF-8" standalone="no"?>
<!DOCTYPE svg PUBLIC "-//W3C//DTD SVG 1.1//EN" "http://www.w3.org/Graphics/SVG/1.1/DTD/svg11.dtd">
<svg width="100%" height="100%" viewBox="0 0 112 112" version="1.1" xmlns="http://www.w3.org/2000/svg" xmlns:xlink="http://www.w3.org/1999/xlink" xml:space="preserve" style="fill-rule:evenodd;clip-rule:evenodd;stroke-linejoin:round;stroke-miterlimit:2;">
    <g transform="matrix(1,0,0,1,-21776.5,-6907.24)">
        <g transform="matrix(12.8621,0,0,4.16667,13849.7,5568.75)">
            <g transform="matrix(0.0384772,0,0,0.118775,609.184,301.425)">
                <g transform="matrix(1,0,0,1,392.143,260.153)">
                    <path d="M0,39.134C-5.249,39.134 -9.503,31.782 -9.503,22.714C-9.503,13.645 -5.249,6.293 0,6.293C5.248,6.293 9.503,13.645 9.503,22.714C9.503,31.782 5.248,39.134 0,39.134M-41.354,108.145C-49.768,112.358 -58.53,111.895 -60.926,107.111C-63.321,102.327 -58.442,95.033 -50.029,90.821C-41.615,86.607 -32.853,87.07 -30.457,91.854C-28.062,96.638 -32.94,103.931 -41.354,108.145M-84.07,32.358C-95.896,32.358 -105.481,22.772 -105.481,10.947C-105.481,-0.877 -95.896,-10.463 -84.07,-10.463C-72.246,-10.463 -62.66,-0.877 -62.66,10.947C-62.66,22.772 -72.246,32.358 -84.07,32.358M-131.247,-64.88C-132.739,-69.157 -129.491,-74.247 -118.251,-77.837C-111.322,-80.051 -102.886,-79.207 -100.91,-75.13C-98.316,-69.778 -101.711,-65.749 -110.812,-62.084C-118.418,-59.02 -129.755,-60.602 -131.247,-64.88M-121.354,102.113C-124.411,107.408 -133.628,107.81 -141.941,103.01C-150.253,98.211 -154.514,90.028 -151.457,84.733C-148.4,79.438 -139.183,79.037 -130.871,83.836C-122.558,88.635 -118.297,96.819 -121.354,102.113M-165.683,4.322C-167.341,13.456 -173.673,19.956 -179.828,18.839C-185.982,17.722 -189.628,9.412 -187.97,0.278C-186.313,-8.857 -179.98,-15.357 -173.826,-14.24C-167.671,-13.123 -164.025,-4.813 -165.683,4.322M-94.422,-93.344C-156.782,-93.344 -207.333,-42.792 -207.333,19.568C-207.333,81.926 -156.782,132.478 -94.422,132.478C-32.063,132.478 18.488,81.926 18.488,19.568C18.488,-42.792 -32.063,-93.344 -94.422,-93.344" style="fill:rgb(254,190,15);fill-rule:nonzero;"/>
                </g>
                <g transform="matrix(1,0,0,1,321.131,263.666)">
                    <path d="M0,16.055C-11.825,16.055 -21.41,6.469 -21.41,-5.356C-21.41,-7.97 -20.94,-10.475 -20.082,-12.791C-28.456,-9.883 -34.47,-1.929 -34.47,7.435C-34.47,19.26 -24.884,28.846 -13.059,28.846C-3.849,28.846 4.001,23.029 7.023,14.87C4.822,15.634 2.461,16.055 0,16.055" style="fill:rgb(20,98,57);fill-rule:nonzero;"/>
                </g>
                <g transform="matrix(1,0,0,1,217.588,274.536)">
                    <path d="M0,-24.347C0.267,-25.817 0.656,-27.218 1.145,-28.531C1.007,-28.564 0.87,-28.597 0.729,-28.622C-5.425,-29.74 -11.758,-23.24 -13.416,-14.105C-15.073,-4.971 -11.428,3.34 -5.273,4.456C-0.109,5.393 5.179,0.967 7.727,-5.877C1.826,-7.286 -1.62,-15.421 0,-24.347" style="fill:rgb(20,98,57);fill-rule:nonzero;"/>
                </g>
                <g transform="matrix(1,0,0,1,263.94,353.624)">
                    <path d="M0,0.624C-5.958,-2.815 -9.833,-7.994 -10.426,-12.601C-16.089,-13.715 -21.143,-12.396 -23.254,-8.738C-26.312,-3.443 -22.051,4.74 -13.738,9.54C-5.426,14.339 3.792,13.937 6.848,8.642C7.714,7.143 7.992,5.411 7.758,3.59C5.224,3.091 2.569,2.107 0,0.624" style="fill:rgb(20,98,57);fill-rule:nonzero;"/>
                </g>
                <g transform="matrix(1,0,0,1,274.953,198.008)">
                    <path d="M0,-12.81C-0.351,-13.816 -0.436,-14.869 -0.219,-15.935C-0.501,-15.856 -0.785,-15.781 -1.062,-15.692C-12.302,-12.102 -15.55,-7.012 -14.058,-2.734C-12.566,1.544 -1.229,3.125 6.377,0.061C13.072,-2.635 16.667,-5.53 17.074,-9.002C9.859,-7.447 1.284,-9.128 0,-12.81" style="fill:rgb(20,98,57);fill-rule:nonzero;"/>
                </g>
                <g transform="matrix(1,0,0,1,351.705,364.898)">
                    <path d="M0,-9.176C-1.098,-11.366 -0.666,-14.083 0.929,-16.789C-2.287,-16.679 -5.97,-15.738 -9.592,-13.924C-18.005,-9.711 -22.884,-2.417 -20.488,2.366C-18.093,7.151 -9.33,7.613 -0.916,3.4C3.646,1.116 7.164,-2.074 9.052,-5.278C4.797,-5.134 1.364,-6.451 0,-9.176" style="fill:rgb(20,98,57);fill-rule:nonzero;"/>
                </g>
                <g transform="matrix(-1,0,0,1,392.143,299.287)">
                    <path d="M0,-32.841C5.249,-32.841 9.503,-25.489 9.503,-16.42C9.503,-7.351 5.249,0 0,0C-5.248,0 -9.503,-7.351 -9.503,-16.42C-4.254,-16.42 0,-23.772 0,-32.841" style="fill:rgb(20,98,57);fill-rule:nonzero;"/>
                </g>
                <g transform="matrix(0.5608,-0.827952,-0.827952,-0.5608,373.307,197.298)">
                    <path d="M-11.859,-6.291C-15.693,-6.29 -18.801,0.123 -18.802,8.034C-18.802,15.944 -15.693,22.356 -11.859,22.356C-8.024,22.356 -4.917,15.944 -4.917,8.033C-4.916,0.122 -8.025,-6.29 -11.859,-6.291" style="fill:rgb(20,98,57);fill-rule:nonzero;"/>
                </g>
                <g transform="matrix(-0.744779,-0.667311,-0.667311,0.744779,205.107,207.528)">
                    <path d="M-8.144,-21.296C-9.238,-21.296 -10.127,-15.831 -10.127,-9.091C-10.127,-2.35 -9.24,3.114 -8.144,3.114C-7.049,3.114 -6.162,-2.35 -6.162,-9.091C-6.162,-15.831 -7.05,-21.296 -8.144,-21.296" style="fill:rgb(20,98,57);fill-rule:nonzero;"/>
                </g>
                <g transform="matrix(1,0,0,1,203.933,315.855)">
                    <path d="M0,24.549C1.652,23.803 0.565,17.823 -2.427,11.193C-5.42,4.562 -9.187,-0.208 -10.839,0.537C-11.679,0.917 -11.808,2.653 -11.341,5.136C-8.749,11.736 -5.548,18.028 -1.816,23.953C-1.09,24.523 -0.461,24.757 0,24.549" style="fill:rgb(20,98,57);fill-rule:nonzero;"/>
                </g>
            </g>
        </g>
    </g>
</svg>
